<svg aria-hidden="true" style="position: absolute; width: 0; height: 0; overflow: hidden;" version="1.1" xmlns="http://www.w3.org/2000/svg" xmlns:xlink="http://www.w3.org/1999/xlink">
<defs>
	<symbol id="icon-chevron-with-circle-right" viewBox="0 0 20 20">
		<path d="M11 10l-2.302-2.506c-0.196-0.198-0.196-0.519 0-0.718 0.196-0.197 0.515-0.197 0.71 0l2.807 2.864c0.196 0.199 0.196 0.52 0 0.717l-2.807 2.864c-0.195 0.199-0.514 0.198-0.71 0-0.196-0.197-0.196-0.518 0-0.717l2.302-2.504zM10 0.4c5.302 0 9.6 4.298 9.6 9.6 0 5.303-4.298 9.6-9.6 9.6s-9.6-4.297-9.6-9.6c0-5.302 4.298-9.6 9.6-9.6zM10 18.354c4.613 0 8.354-3.74 8.354-8.354s-3.741-8.354-8.354-8.354c-4.615 0-8.354 3.74-8.354 8.354s3.739 8.354 8.354 8.354z"></path>
	</symbol>
	<symbol id="icon-resize-100" viewBox="0 0 20 20">
		<path d="M4.1 14.1l-3.1 2.9 2 2 2.9-3.1 2.1 2.1v-6h-6l2.1 2.1zM19 3l-2-2-2.9 3.1-2.1-2.1v6h6l-2.1-2.1 3.1-2.9z"></path>
	</symbol>
	<symbol id="icon-location-pin" viewBox="0 0 20 20">
		<path d="M10 2.009c-2.762 0-5 2.229-5 4.99 0 4.774 5 11 5 11s5-6.227 5-11c0-2.76-2.238-4.99-5-4.99zM10 9.76c-1.492 0-2.7-1.209-2.7-2.7s1.208-2.7 2.7-2.7c1.49 0 2.699 1.209 2.699 2.7s-1.209 2.7-2.699 2.7z"></path>
	</symbol>
	<symbol id="icon-mail" viewBox="0 0 20 20">
		<path d="M1.574 5.286c0.488 0.262 7.248 3.894 7.5 4.029s0.578 0.199 0.906 0.199c0.328 0 0.654-0.064 0.906-0.199s7.012-3.767 7.5-4.029c0.489-0.263 0.951-1.286 0.054-1.286h-16.919c-0.897 0-0.435 1.023 0.053 1.286zM18.613 7.489c-0.555 0.289-7.387 3.849-7.727 4.027s-0.578 0.199-0.906 0.199-0.566-0.021-0.906-0.199-7.133-3.739-7.688-4.028c-0.39-0.204-0.386 0.035-0.386 0.219s0 7.293 0 7.293c0 0.42 0.566 1 1 1h16c0.434 0 1-0.58 1-1 0 0 0-7.108 0-7.292s0.004-0.423-0.387-0.219z"></path>
	</symbol>
	<symbol id="open-document" viewBox="0 0 15 15">
		<path fill-rule="evenodd" clip-rule="evenodd" d="M1.25 1.25C0.904822 1.25 0.625 1.52982 0.625 1.875V11.25C0.625 11.5952 0.904822 11.875 1.25 11.875H5.625C5.95652 11.875 6.27446 12.0067 6.50888 12.2411C6.7433 12.4755 6.875 12.7935 6.875 13.125C6.875 13.4702 7.15482 13.75 7.5 13.75C7.84518 13.75 8.125 13.4702 8.125 13.125C8.125 12.7935 8.2567 12.4755 8.49112 12.2411C8.72554 12.0067 9.04348 11.875 9.375 11.875H13.75C14.0952 11.875 14.375 11.5952 14.375 11.25V1.875C14.375 1.52982 14.0952 1.25 13.75 1.25H10C9.1712 1.25 8.37634 1.57924 7.79029 2.16529C7.68512 2.27047 7.58821 2.38237 7.5 2.49998C7.41179 2.38237 7.31488 2.27047 7.20971 2.16529C6.62366 1.57924 5.8288 1.25 5 1.25H1.25ZM8.125 10.9599C8.50182 10.7424 8.93236 10.625 9.375 10.625H13.125V2.5H10C9.50272 2.5 9.0258 2.69754 8.67417 3.04917C8.32254 3.40081 8.125 3.87772 8.125 4.375V10.9599ZM6.875 10.9599V4.375C6.875 3.87772 6.67746 3.40081 6.32583 3.04917C5.9742 2.69754 5.49728 2.5 5 2.5H1.875V10.625H5.625C6.06764 10.625 6.49818 10.7424 6.875 10.9599Z"/>
	</symbol>
	<symbol id="chevron-left" viewBox="0 0 22 22">
  		<path d="M9.54652 11L14.3983 6.14818C14.7563 5.7902 14.7563 5.20979 14.3983 4.85181C14.0404 4.49383 13.46 4.49383 13.102 4.85181L7.60198 10.3518C7.244 10.7098 7.244 11.2902 7.60198 11.6482L13.102 17.1482C13.46 17.5062 14.0404 17.5062 14.3983 17.1482C14.7563 16.7902 14.7563 16.2098 14.3983 15.8518L9.54652 11Z"/>
	</symbol>
	<symbol id="chevron-right" viewBox="0 0 22 22">
		<path d="M8.89834 4.85181C8.54036 4.49383 7.95996 4.49383 7.60198 4.85181C7.244 5.20979 7.244 5.7902 7.60198 6.14818L12.4538 11L7.60198 15.8518C7.244 16.2098 7.244 16.7902 7.60198 17.1482C7.95996 17.5062 8.54036 17.5062 8.89834 17.1482L14.3983 11.6482C14.7563 11.2902 14.7563 10.7098 14.3983 10.3518L8.89834 4.85181Z"/>
	</symbol>
</defs>
</svg>
